<svg width="10" height="10" viewBox="0 0 10 10" fill="none" xmlns="http://www.w3.org/2000/svg">
<path d="M9.54545 10C3.83636 10 0 6.16364 0 0.454545C0 0.333993 0.0478895 0.218377 0.133133 0.133133C0.218377 0.0478895 0.333992 0 0.454545 0L3.63636 0C3.75921 0.000300947 3.87692 0.0493457 3.96364 0.136364C4.04496 0.226031 4.09029 0.342585 4.09091 0.463636C4.07533 1.18379 4.23113 1.89733 4.54545 2.54545C4.58375 2.61179 4.60392 2.68704 4.60392 2.76364C4.60392 2.84023 4.58375 2.91548 4.54545 2.98182L4.41818 3.18182C4.25455 3.42727 3.98182 3.84545 3.8 4.09091C4.33216 4.984 5.07503 5.73311 5.96364 6.27273L7.1 5.50909C7.18338 5.46397 7.2784 5.44497 7.37273 5.45455L7.85455 5.59091C8.40118 5.77161 8.97024 5.87563 9.54545 5.9C9.60592 5.89999 9.66578 5.91204 9.72153 5.93545C9.77728 5.95886 9.82779 5.99316 9.87012 6.03633C9.91245 6.07951 9.94574 6.13069 9.96804 6.1869C9.99035 6.2431 10.0012 6.30318 10 6.36364V9.54545C10 9.66601 9.95211 9.78162 9.86687 9.86687C9.78162 9.95211 9.66601 10 9.54545 10ZM0.909091 0.909091C1.09091 5.74545 4.24545 8.9 9.09091 9.09091V6.79091C8.5848 6.73344 8.08548 6.62688 7.6 6.47273L7.34545 6.36364C6.99091 6.59091 6.33636 7.03636 6.17273 7.15455C6.10195 7.19437 6.02212 7.21529 5.94091 7.21529C5.8597 7.21529 5.77986 7.19437 5.70909 7.15455C4.48168 6.50499 3.4659 5.5176 2.78182 4.30909C2.73483 4.23585 2.70985 4.15066 2.70985 4.06364C2.70985 3.97662 2.73483 3.89142 2.78182 3.81818L3.57273 2.72727C3.33829 2.14876 3.20899 1.53304 3.19091 0.909091H0.909091Z" fill="#6A7B89"/>
</svg>
