<svg width="12" height="12" viewBox="0 0 12 12" fill="none" xmlns="http://www.w3.org/2000/svg">
<path d="M2.75547 10.7355C3.68256 11.362 4.77251 11.6964 5.8875 11.6964C7.38266 11.6964 8.81658 11.0957 9.87382 10.0264C10.9311 8.95719 11.525 7.50696 11.525 5.99481C11.525 4.86714 11.1944 3.76479 10.5749 2.82717C9.95545 1.88955 9.075 1.15876 8.04488 0.727223C7.01476 0.295683 5.88125 0.182773 4.78768 0.40277C3.69411 0.622767 2.68961 1.16579 1.90119 1.96317C1.11277 2.76055 0.57585 3.77648 0.358325 4.88248C0.140801 5.98848 0.252443 7.13488 0.679132 8.17671C1.10582 9.21854 1.82839 10.109 2.75547 10.7355Z" fill="#2BAAA9"/>
</svg>
