<svg width="10" height="10" viewBox="0 0 10 10" fill="none" xmlns="http://www.w3.org/2000/svg">
<path fill-rule="evenodd" clip-rule="evenodd" d="M8.63636 0.909088H1.36364C1.00198 0.909088 0.655131 1.05276 0.3994 1.30849C0.143668 1.56422 0 1.91107 0 2.27272V7.72727C0 8.08893 0.143668 8.43578 0.3994 8.69151C0.655131 8.94724 1.00198 9.09091 1.36364 9.09091H8.63636C8.99802 9.09091 9.34487 8.94724 9.6006 8.69151C9.85633 8.43578 10 8.08893 10 7.72727V2.27272C10 1.91107 9.85633 1.56422 9.6006 1.30849C9.34487 1.05276 8.99802 0.909088 8.63636 0.909088ZM1.36364 8.18182H8.63636C8.75619 8.17949 8.87045 8.13085 8.9552 8.04611C9.03994 7.96136 9.08858 7.84709 9.09091 7.72727V2.30909L5.28182 5.35454C5.20227 5.41952 5.10271 5.45502 5 5.45502C4.89729 5.45502 4.79773 5.41952 4.71818 5.35454L0.909091 2.27272V7.72727C0.911418 7.84709 0.960055 7.96136 1.0448 8.04611C1.12954 8.13085 1.24381 8.17949 1.36364 8.18182ZM1.75455 1.81818L5 4.41818L8.24545 1.81818H1.75455Z" fill="#6A7B89"/>
</svg>
