<svg width="8" height="10" viewBox="0 0 8 10" fill="none" xmlns="http://www.w3.org/2000/svg">
<path d="M3.99999 0C3.15612 0 2.34682 0.335226 1.75011 0.931933C1.1534 1.52864 0.818176 2.33795 0.818176 3.18182C0.820116 3.65453 0.928888 4.1207 1.13636 4.54545L3.68181 9.80909C3.71326 9.86593 3.75936 9.9133 3.81531 9.94629C3.87127 9.97928 3.93504 9.99668 3.99999 9.99668C4.06495 9.99668 4.12872 9.97928 4.18468 9.94629C4.24063 9.9133 4.28673 9.86593 4.31818 9.80909L6.86363 4.54545C7.0711 4.1207 7.17987 3.65453 7.18181 3.18182C7.18181 2.33795 6.84659 1.52864 6.24988 0.931933C5.65317 0.335226 4.84386 0 3.99999 0ZM3.99999 4.54545C3.73029 4.54545 3.46665 4.46548 3.2424 4.31564C3.01815 4.1658 2.84337 3.95283 2.74016 3.70366C2.63695 3.45449 2.60994 3.18031 2.66256 2.91579C2.71518 2.65127 2.84505 2.40829 3.03576 2.21758C3.22647 2.02687 3.46944 1.897 3.73396 1.84438C3.99848 1.79177 4.27266 1.81877 4.52184 1.92198C4.77101 2.02519 4.98398 2.19997 5.13382 2.42422C5.28365 2.64847 5.36363 2.91212 5.36363 3.18182C5.36363 3.54348 5.21996 3.89032 4.96423 4.14606C4.7085 4.40179 4.36165 4.54545 3.99999 4.54545Z" fill="#6A7B89"/>
</svg>
