<svg width="74" height="20" viewBox="0 0 74 20" fill="none" xmlns="http://www.w3.org/2000/svg">
<path d="M1.6927 17.6126H0.667221V16.7814H1.75523V16.4939H0.329563V19.1188H1.81151V18.8376H0.667221V17.8876H1.6927V17.6126Z" fill="#43484B"/>
<path d="M2.4486 17.2376L3.07389 18.1563L2.41733 19.1188H2.79876L3.07389 18.6938C3.14267 18.5813 3.21145 18.4813 3.27398 18.3688C3.34276 18.4813 3.40529 18.5876 3.48033 18.6938L3.75546 19.1188H4.14939L3.48658 18.1251L4.11187 17.2189H3.75546L3.49283 17.6189C3.4303 17.7189 3.36777 17.8189 3.30525 17.9313C3.24272 17.8251 3.18019 17.7251 3.1114 17.6251L2.84253 17.2189L2.4486 17.2376Z" fill="#43484B"/>
<path d="M4.91765 19.8875H5.25531V18.8688C5.31586 18.9665 5.40217 19.0455 5.50476 19.0974C5.60735 19.1492 5.72225 19.1717 5.83683 19.1625C5.95479 19.1609 6.07127 19.136 6.17954 19.0892C6.28782 19.0423 6.38576 18.9746 6.46771 18.8898C6.54967 18.8049 6.61402 18.7048 6.65706 18.595C6.7001 18.4852 6.72098 18.368 6.71849 18.2501C6.72161 18.2085 6.72161 18.1667 6.71849 18.1251C6.74492 17.8997 6.68073 17.673 6.54003 17.4949C6.39933 17.3168 6.19364 17.2017 5.96814 17.1751H5.90561C5.77177 17.1698 5.63897 17.2006 5.52121 17.2644C5.40345 17.3282 5.3051 17.4226 5.23655 17.5376V17.2189H4.9239V19.8938L4.91765 19.8875ZM5.25531 18.0126C5.24499 17.9393 5.2511 17.8645 5.2732 17.7938C5.29529 17.7232 5.33283 17.6583 5.38309 17.6038C5.43335 17.5494 5.49508 17.5068 5.56382 17.4792C5.63256 17.4515 5.70658 17.4394 5.78055 17.4439C6.14322 17.4439 6.34332 17.7689 6.34332 18.1501C6.34332 18.5313 6.13072 18.8751 5.76805 18.8751C5.64926 18.8759 5.5336 18.837 5.43953 18.7645C5.34546 18.692 5.2784 18.5901 5.24906 18.4751C5.24284 18.4274 5.24284 18.379 5.24906 18.3313L5.25531 18.0126Z" fill="#43484B"/>
<path d="M9.10001 18.2376V18.0813C9.12302 17.8728 9.06316 17.6636 8.93334 17.4988C8.80352 17.334 8.61412 17.2267 8.40593 17.2001H8.31839C8.07679 17.2051 7.84685 17.3049 7.67833 17.478C7.50981 17.6511 7.41628 17.8836 7.41797 18.1251C7.4149 18.15 7.4149 18.1752 7.41797 18.2001C7.40766 18.3146 7.42002 18.43 7.45435 18.5397C7.48869 18.6494 7.54432 18.7513 7.61807 18.8395C7.69182 18.9278 7.78224 19.0006 7.88417 19.0539C7.98609 19.1072 8.09752 19.1398 8.21209 19.15C8.25773 19.1563 8.30402 19.1563 8.34966 19.15C8.56365 19.1564 8.77662 19.1181 8.97495 19.0375L8.91867 18.7876C8.75285 18.8583 8.57367 18.8925 8.39343 18.8876C8.22759 18.8876 8.06854 18.8217 7.95128 18.7045C7.83401 18.5873 7.76813 18.4283 7.76813 18.2626V18.2313L9.10001 18.2376ZM7.77439 17.9938C7.77565 17.852 7.83047 17.7159 7.92786 17.6128C8.02526 17.5096 8.15805 17.4471 8.29963 17.4376C8.36451 17.4392 8.42843 17.4536 8.48775 17.4799C8.54706 17.5063 8.6006 17.544 8.64531 17.591C8.69003 17.638 8.72503 17.6934 8.74833 17.7539C8.77163 17.8145 8.78277 17.879 8.78111 17.9438V17.9938H7.77439Z" fill="#43484B"/>
<path d="M9.9683 19.1188H10.306V18.1251C10.2994 18.0732 10.2994 18.0207 10.306 17.9688C10.3166 17.8521 10.3694 17.7433 10.4546 17.6627C10.5398 17.5822 10.6515 17.5355 10.7687 17.5314H10.8875V17.2126H10.7874C10.667 17.2153 10.5507 17.257 10.456 17.3313C10.3613 17.4057 10.2933 17.5088 10.2622 17.6251V17.2564H9.94954V17.8439L9.9683 19.1188Z" fill="#43484B"/>
<path d="M11.8811 16.7877V17.2376H11.5873V17.5001H11.8811V18.5313C11.8626 18.7054 11.9119 18.88 12.0187 19.0188C12.0655 19.0689 12.1229 19.1078 12.1868 19.1327C12.2506 19.1576 12.3193 19.1678 12.3876 19.1625C12.4916 19.1664 12.5953 19.1516 12.694 19.1188V18.8626C12.6279 18.8751 12.56 18.8751 12.4939 18.8626C12.3063 18.8626 12.2376 18.7251 12.2376 18.4938V17.5001H12.7315V17.2439H12.2376V16.7002L11.8811 16.7877Z" fill="#43484B"/>
<path d="M13.3687 19.0313C13.5317 19.1193 13.7151 19.1625 13.9002 19.1563C14.3504 19.1563 14.6068 18.9251 14.6068 18.5938C14.6068 18.2626 14.438 18.1501 14.1128 18.0251C13.7877 17.9001 13.7502 17.8626 13.7502 17.7064C13.7502 17.5501 13.8627 17.4501 14.0691 17.4501C14.2054 17.4506 14.3392 17.4872 14.4567 17.5564L14.5443 17.3126C14.4008 17.2333 14.2393 17.1924 14.0753 17.1939C13.922 17.1838 13.7703 17.2304 13.6492 17.3249C13.5281 17.4195 13.4461 17.5552 13.4188 17.7064V17.7439C13.4188 17.9688 13.5813 18.1563 13.9252 18.2813C14.2692 18.4063 14.2754 18.4626 14.2754 18.6251C14.2754 18.7876 14.1566 18.9063 13.9065 18.9063C13.7424 18.8994 13.5839 18.8451 13.45 18.7501L13.3687 19.0313Z" fill="#43484B"/>
<path d="M18.7575 18.2376V18.0813C18.7805 17.8728 18.7206 17.6636 18.5908 17.4988C18.461 17.334 18.2716 17.2267 18.0634 17.2001H17.9759C17.7365 17.2083 17.5097 17.3095 17.3439 17.4823C17.178 17.655 17.0862 17.8857 17.088 18.1251C17.0845 18.1479 17.0845 18.171 17.088 18.1938C17.0776 18.3083 17.09 18.4237 17.1243 18.5335C17.1587 18.6432 17.2143 18.7451 17.2881 18.8333C17.3618 18.9215 17.4522 18.9943 17.5542 19.0476C17.6561 19.1009 17.7675 19.1336 17.8821 19.1438C17.9277 19.15 17.974 19.15 18.0196 19.1438C18.2334 19.1471 18.4458 19.1089 18.6449 19.0313L18.5887 18.7813C18.4228 18.8521 18.2437 18.8862 18.0634 18.8813C17.8976 18.8813 17.7385 18.8155 17.6213 18.6983C17.504 18.581 17.4381 18.4221 17.4381 18.2563V18.2251L18.7575 18.2376ZM17.4256 17.9938C17.4298 17.8519 17.4865 17.7165 17.5846 17.6138C17.6827 17.5111 17.8154 17.4484 17.9571 17.4376C18.0209 17.4384 18.0839 17.4519 18.1424 17.4772C18.2009 17.5025 18.2538 17.5392 18.298 17.5852C18.3422 17.6311 18.3769 17.6854 18.3999 17.7448C18.423 17.8042 18.434 17.8676 18.4323 17.9313V17.9938H17.4256Z" fill="#43484B"/>
<path d="M19.6445 19.1188H20.0072V17.9876C19.9947 17.9342 19.9947 17.8785 20.0072 17.8251C20.0363 17.7259 20.0963 17.6386 20.1783 17.5757C20.2604 17.5128 20.3603 17.4776 20.4637 17.4751C20.7888 17.4751 20.9076 17.7314 20.9076 18.0313V19.1188H21.2578V17.9938C21.2578 17.3689 20.8513 17.1939 20.5887 17.1939C20.4619 17.1905 20.3365 17.2219 20.2263 17.2847C20.116 17.3475 20.0251 17.4393 19.9634 17.5501V17.2376H19.657V17.7439L19.6445 19.1188Z" fill="#43484B"/>
<path d="M24.3828 19.1188V17.2439H24.0076V19.1188H24.3828ZM24.2139 16.4939C24.186 16.4931 24.1582 16.4978 24.1321 16.5077C24.106 16.5176 24.0821 16.5325 24.0618 16.5517C24.0414 16.5709 24.0251 16.5938 24.0136 16.6193C24.0022 16.6448 23.9959 16.6722 23.9951 16.7002C23.9934 16.7274 23.9973 16.7548 24.0066 16.7805C24.0159 16.8063 24.0303 16.8298 24.0491 16.8497C24.0678 16.8696 24.0905 16.8855 24.1156 16.8963C24.1407 16.9071 24.1678 16.9127 24.1952 16.9126C24.2231 16.9143 24.2511 16.9105 24.2775 16.9014C24.304 16.8922 24.3284 16.8779 24.3493 16.8594C24.3702 16.8408 24.3872 16.8183 24.3994 16.7931C24.4116 16.7679 24.4187 16.7406 24.4203 16.7127C24.422 16.6854 24.4181 16.658 24.4088 16.6323C24.3995 16.6066 24.385 16.583 24.3663 16.5631C24.3475 16.5432 24.3249 16.5273 24.2998 16.5165C24.2746 16.5057 24.2476 16.5001 24.2202 16.5002L24.2139 16.4939Z" fill="#43484B"/>
<path d="M25.364 19.1188H25.7079V17.9876C25.6954 17.9342 25.6954 17.8785 25.7079 17.8251C25.7371 17.7259 25.797 17.6386 25.879 17.5757C25.9611 17.5128 26.061 17.4776 26.1644 17.4751C26.4895 17.4751 26.6084 17.7314 26.6084 18.0313V19.1188H26.9523V17.9938C26.9523 17.3689 26.5458 17.1939 26.2832 17.1939C26.1564 17.1905 26.031 17.2219 25.9207 17.2847C25.8105 17.3475 25.7196 17.4393 25.6579 17.5501V17.2376H25.3515V17.7439L25.364 19.1188Z" fill="#43484B"/>
<path d="M28.3396 19.1188V17.5001H28.8023V17.2439H28.3396V17.1439C28.3396 16.8501 28.4146 16.5939 28.7085 16.5939C28.7838 16.5927 28.8584 16.6076 28.9274 16.6377L28.9774 16.3752C28.8839 16.338 28.7842 16.3189 28.6835 16.3189C28.5129 16.3179 28.348 16.3802 28.2208 16.4939C28.1403 16.5818 28.0793 16.6857 28.0416 16.7988C28.0039 16.9118 27.9904 17.0315 28.0019 17.1501V17.2439H27.7331V17.5001H28.0019V19.125L28.3396 19.1188Z" fill="#43484B"/>
<path d="M30.2896 17.1939C30.1658 17.1905 30.0426 17.2122 29.9274 17.2576C29.8122 17.3031 29.7073 17.3713 29.6192 17.4583C29.531 17.5453 29.4613 17.6492 29.4144 17.7638C29.3674 17.8784 29.344 18.0013 29.3458 18.1251C29.3427 18.1583 29.3427 18.1918 29.3458 18.2251C29.3268 18.4629 29.403 18.6986 29.5577 18.8802C29.7125 19.0619 29.933 19.1747 30.1709 19.1938H30.2521C30.4965 19.1988 30.7328 19.107 30.9097 18.9384C31.0865 18.7698 31.1895 18.5381 31.196 18.2938V18.1938C31.215 17.9577 31.1394 17.7236 30.9859 17.5431C30.8323 17.3626 30.6134 17.2505 30.3772 17.2314L30.2896 17.1939ZM30.2896 17.4501C30.696 17.4501 30.8585 17.8563 30.8585 18.1751C30.8585 18.6001 30.6084 18.9063 30.2834 18.9063C30.1964 18.9005 30.1117 18.8766 30.0345 18.836C29.9574 18.7955 29.8895 18.7393 29.8354 18.6711C29.7812 18.6028 29.7419 18.524 29.7201 18.4396C29.6982 18.3553 29.6942 18.2673 29.7083 18.1813C29.7083 17.7689 29.8771 17.4501 30.2834 17.4501H30.2896Z" fill="#43484B"/>
<path d="M32.0711 19.1188H32.4088V18.1251C32.4022 18.0732 32.4022 18.0207 32.4088 17.9688C32.418 17.8516 32.4705 17.742 32.556 17.6612C32.6414 17.5803 32.7539 17.5341 32.8715 17.5314H32.9841V17.2126H32.8903C32.7698 17.2153 32.6535 17.257 32.5588 17.3313C32.4641 17.4057 32.3961 17.5088 32.365 17.6251V17.2564H32.0649V19.1313L32.0711 19.1188Z" fill="#43484B"/>
<path d="M33.7963 19.1188H34.1339V17.9813C34.1331 17.8563 34.1787 17.7354 34.2618 17.6419C34.3449 17.5484 34.4596 17.489 34.584 17.4751C34.8465 17.4751 34.984 17.6939 34.984 17.9938V19.1188H35.3215V17.9563C35.3091 17.9008 35.3091 17.8432 35.3215 17.7876C35.3486 17.6999 35.4022 17.6227 35.475 17.5668C35.5478 17.5108 35.6361 17.4788 35.7278 17.4751C36.0091 17.4751 36.1404 17.6939 36.1404 18.0563V19.1188H36.4779V18.0126C36.4779 17.3564 36.1029 17.1939 35.8529 17.1939C35.702 17.1856 35.5532 17.2322 35.4341 17.3251C35.3471 17.3908 35.2747 17.4738 35.2215 17.5689C35.1824 17.458 35.1094 17.3623 35.013 17.295C34.9166 17.2278 34.8015 17.1924 34.684 17.1939C34.5571 17.1806 34.4293 17.2064 34.3176 17.2678C34.2058 17.3293 34.1156 17.4234 34.0589 17.5376V17.2376H33.7588V17.7439L33.7963 19.1188Z" fill="#43484B"/>
<path d="M38.8537 19.1188C38.8412 18.9691 38.8412 18.8185 38.8537 18.6688V17.9626C38.8537 17.5876 38.7162 17.1939 38.1347 17.1939C37.9143 17.1888 37.6972 17.2474 37.5094 17.3626L37.5907 17.5876C37.7381 17.4934 37.9096 17.4435 38.0846 17.4439C38.1866 17.4315 38.2893 17.4601 38.3702 17.5234C38.4511 17.5867 38.5036 17.6794 38.5161 17.7814V17.9188C37.7782 17.9188 37.3718 18.1688 37.3718 18.6188C37.371 18.6904 37.3845 18.7615 37.4115 18.8279C37.4385 18.8942 37.4786 18.9545 37.5293 19.0052C37.58 19.0558 37.6403 19.0958 37.7066 19.1229C37.773 19.1499 37.8441 19.1634 37.9158 19.1625H37.9533C38.0656 19.1647 38.1767 19.1404 38.2778 19.0915C38.3788 19.0427 38.4669 18.9706 38.5348 18.8813V19.1188H38.8537ZM38.4911 18.4938C38.4974 18.529 38.4974 18.5649 38.4911 18.6001C38.4571 18.6949 38.3941 18.7767 38.3111 18.8339C38.2281 18.8911 38.1292 18.9208 38.0284 18.9188C37.9881 18.9213 37.9477 18.9159 37.9096 18.9028C37.8715 18.8897 37.8363 18.8693 37.8061 18.8425C37.7758 18.8158 37.7512 18.7834 37.7336 18.7472C37.7159 18.7109 37.7056 18.6716 37.7032 18.6313C37.7032 18.6313 37.7032 18.6313 37.7032 18.5876C37.7032 18.2251 38.1347 18.1563 38.5098 18.1626L38.4911 18.4938Z" fill="#43484B"/>
<path d="M39.8722 16.7877V17.2376H39.5783V17.5001H39.8722V18.5313C39.8513 18.7047 39.8983 18.8794 40.0035 19.0188C40.0512 19.0694 40.1097 19.1086 40.1747 19.1335C40.2397 19.1584 40.3094 19.1683 40.3787 19.1625C40.4826 19.1664 40.5864 19.1516 40.6851 19.1188V18.8626C40.619 18.8751 40.5511 18.8751 40.485 18.8626C40.2974 18.8626 40.2286 18.7251 40.2286 18.4938V17.5001H40.7226V17.2439H40.2286V16.7002L39.8722 16.7877Z" fill="#43484B"/>
<path d="M41.885 19.1188V17.2439H41.5411V19.1188H41.885ZM41.7099 16.4939C41.6535 16.4939 41.5995 16.5163 41.5596 16.5562C41.5197 16.596 41.4973 16.65 41.4973 16.7064C41.4973 16.7628 41.5197 16.8168 41.5596 16.8567C41.5995 16.8965 41.6535 16.9189 41.7099 16.9189C41.7663 16.9189 41.8204 16.8965 41.8603 16.8567C41.9001 16.8168 41.9225 16.7628 41.9225 16.7064C41.9225 16.65 41.9001 16.596 41.8603 16.5562C41.8204 16.5163 41.7663 16.4939 41.7099 16.4939Z" fill="#43484B"/>
<path d="M44.1607 19.8875H44.5046V17.2376H44.1794V17.5001C44.1225 17.3957 44.037 17.3096 43.9329 17.252C43.8288 17.1945 43.7104 17.1678 43.5916 17.1751C43.4725 17.1807 43.3557 17.2098 43.2478 17.2606C43.14 17.3114 43.0432 17.383 42.963 17.4712C42.8829 17.5594 42.8209 17.6626 42.7807 17.7748C42.7405 17.887 42.7229 18.0061 42.7287 18.1251C42.7257 18.1458 42.7257 18.1669 42.7287 18.1876C42.7157 18.3005 42.7251 18.4148 42.7564 18.5241C42.7878 18.6334 42.8404 18.7353 42.9113 18.8242C42.9822 18.9131 43.0699 18.987 43.1695 19.0419C43.2691 19.0967 43.3786 19.1314 43.4916 19.1438H43.5354C43.6605 19.1498 43.7848 19.1215 43.895 19.062C44.0052 19.0025 44.097 18.9141 44.1607 18.8063V19.8875ZM44.1607 18.3501C44.1549 18.4876 44.099 18.6183 44.0033 18.7174C43.9077 18.8164 43.779 18.877 43.6417 18.8876C43.2602 18.8876 43.0789 18.5626 43.0789 18.1876C43.0789 17.8126 43.2915 17.4626 43.6479 17.4626C43.763 17.4614 43.875 17.4999 43.965 17.5717C44.055 17.6434 44.1174 17.7439 44.1419 17.8563C44.1482 17.9041 44.1482 17.9524 44.1419 18.0001L44.1607 18.3501Z" fill="#43484B"/>
<path d="M47.0861 17.2376H46.7422V18.3938C46.7516 18.4518 46.7516 18.5109 46.7422 18.5688C46.7071 18.66 46.6454 18.7385 46.5651 18.7942C46.4849 18.85 46.3897 18.8803 46.292 18.8813C45.9731 18.8813 45.8668 18.6376 45.8668 18.2563V17.2376H45.5229V18.3376C45.5229 19 45.8793 19.1625 46.1481 19.1625C46.2736 19.1627 46.3971 19.1306 46.5066 19.0693C46.6161 19.008 46.708 18.9196 46.7734 18.8126V19.1188H47.0798V18.6063L47.0861 17.2376Z" fill="#43484B"/>
<path d="M49.6115 18.2376V18.0813C49.6345 17.8728 49.5746 17.6636 49.4448 17.4988C49.315 17.334 49.1256 17.2267 48.9174 17.2001H48.8298C48.5893 17.2067 48.361 17.3072 48.1938 17.4801C48.0266 17.6531 47.9339 17.8846 47.9357 18.1251C47.9322 18.1479 47.9322 18.171 47.9357 18.1938C47.9236 18.3118 47.9357 18.4309 47.9712 18.544C48.0066 18.6572 48.0647 18.7619 48.1419 18.8519C48.2191 18.9419 48.3138 19.0153 48.4202 19.0676C48.5266 19.12 48.6426 19.1501 48.7611 19.1563C48.8067 19.1625 48.853 19.1625 48.8986 19.1563C49.1124 19.1596 49.3247 19.1214 49.5239 19.0438L49.4614 18.7938C49.2963 18.867 49.1166 18.9012 48.9361 18.8938C48.7703 18.8938 48.6112 18.828 48.494 18.7108C48.3767 18.5935 48.3108 18.4346 48.3108 18.2688V18.2376H49.6115ZM48.2858 17.9938C48.2886 17.8515 48.3448 17.7153 48.4432 17.6123C48.5416 17.5093 48.6751 17.447 48.8173 17.4376C48.8811 17.4384 48.9441 17.4519 49.0026 17.4772C49.0611 17.5025 49.114 17.5392 49.1582 17.5852C49.2024 17.6311 49.2371 17.6854 49.2601 17.7448C49.2832 17.8042 49.2942 17.8676 49.2925 17.9313V17.9938H48.2858Z" fill="#43484B"/>
<path d="M52.2487 19.1188H52.5863V17.9813C52.5737 17.9279 52.5737 17.8723 52.5863 17.8188C52.6158 17.7285 52.6724 17.6494 52.7484 17.5924C52.8245 17.5353 52.9163 17.5031 53.0113 17.5001C53.2738 17.5001 53.4051 17.7189 53.4051 18.0188V19.1438H53.7614V17.9563C53.7488 17.9008 53.7488 17.8431 53.7614 17.7876C53.7877 17.6994 53.841 17.6217 53.914 17.5656C53.9869 17.5095 54.0757 17.4779 54.1677 17.4751C54.4427 17.4751 54.574 17.6939 54.574 18.0563V19.1188H54.9115V18.0126C54.9115 17.3564 54.5427 17.1939 54.2865 17.1939C54.1356 17.1856 53.9868 17.2322 53.8677 17.3251C53.7778 17.3876 53.7048 17.4713 53.6551 17.5689C53.6144 17.4591 53.5411 17.3643 53.445 17.2973C53.3489 17.2303 53.2347 17.1942 53.1176 17.1939C52.9907 17.1806 52.8629 17.2064 52.7512 17.2678C52.6394 17.3293 52.5492 17.4234 52.4925 17.5376V17.2376H52.1987V17.7439L52.2487 19.1188Z" fill="#43484B"/>
<path d="M57.4687 18.2376V18.0813C57.4917 17.8728 57.4318 17.6636 57.302 17.4988C57.1722 17.334 56.9828 17.2267 56.7746 17.2001H56.6871C56.4466 17.2067 56.2182 17.3072 56.051 17.4801C55.8839 17.6531 55.7912 17.8846 55.7929 18.1251C55.7895 18.1479 55.7895 18.171 55.7929 18.1938C55.7826 18.3083 55.795 18.4237 55.8293 18.5335C55.8636 18.6432 55.9193 18.7451 55.993 18.8333C56.0668 18.9215 56.1572 18.9943 56.2591 19.0476C56.361 19.1009 56.4725 19.1336 56.587 19.1438C56.6327 19.15 56.679 19.15 56.7246 19.1438C56.9383 19.1471 57.1507 19.1089 57.3499 19.0313L57.2874 18.7813C57.1223 18.8545 56.9426 18.8887 56.7621 18.8813C56.5963 18.8813 56.4372 18.8155 56.32 18.6982C56.2027 18.581 56.1368 18.4221 56.1368 18.2563V18.2251L57.4687 18.2376ZM56.1431 17.9938C56.1459 17.8515 56.2021 17.7153 56.3005 17.6123C56.3989 17.5093 56.5324 17.447 56.6746 17.4376C56.7383 17.4384 56.8013 17.4519 56.8598 17.4772C56.9183 17.5025 56.9713 17.5392 57.0155 17.5852C57.0597 17.6311 57.0943 17.6854 57.1174 17.7448C57.1404 17.8042 57.1515 17.8676 57.1498 17.9313V17.9938H56.1431ZM56.8497 16.4252L56.5057 16.9814H56.7559L57.2311 16.4252H56.8497Z" fill="#43484B"/>
<path d="M59.6314 16.3564V17.5001C59.5705 17.4046 59.4849 17.3274 59.3836 17.2768C59.2822 17.2261 59.1691 17.204 59.0561 17.2126C58.9375 17.2182 58.8212 17.2473 58.714 17.2983C58.6068 17.3492 58.5108 17.421 58.4317 17.5094C58.3525 17.5979 58.2918 17.7012 58.253 17.8133C58.2142 17.9254 58.1981 18.0442 58.2057 18.1626C58.2026 18.1833 58.2026 18.2044 58.2057 18.2251C58.1927 18.338 58.2021 18.4523 58.2334 18.5616C58.2647 18.6709 58.3174 18.7728 58.3883 18.8617C58.4591 18.9506 58.5469 19.0245 58.6465 19.0794C58.7461 19.1342 58.8556 19.1689 58.9686 19.1813H59.0123C59.1401 19.1815 59.2655 19.1473 59.3755 19.0824C59.4855 19.0176 59.576 18.9244 59.6376 18.8126V19.1375H60.0128V16.3564H59.6314ZM59.6314 18.3313C59.6377 18.379 59.6377 18.4274 59.6314 18.4751C59.6081 18.592 59.5448 18.6971 59.4524 18.7724C59.3599 18.8477 59.2441 18.8884 59.1249 18.8876C58.7497 18.8876 58.5621 18.5688 58.5621 18.1876C58.5621 17.8064 58.7747 17.4626 59.1312 17.4626C59.2467 17.4623 59.359 17.501 59.4498 17.5725C59.5406 17.6439 59.6046 17.744 59.6314 17.8563C59.6377 17.9041 59.6377 17.9524 59.6314 18.0001V18.3313Z" fill="#43484B"/>
<path d="M61.325 19.1188V17.2439H60.9811V19.1188H61.325ZM61.1499 16.4939C61.0935 16.4939 61.0395 16.5163 60.9996 16.5562C60.9597 16.596 60.9373 16.65 60.9373 16.7064C60.9373 16.7628 60.9597 16.8168 60.9996 16.8567C61.0395 16.8965 61.0935 16.9189 61.1499 16.9189C61.2063 16.9189 61.2604 16.8965 61.3003 16.8567C61.3401 16.8168 61.3625 16.7628 61.3625 16.7064C61.3625 16.65 61.3401 16.596 61.3003 16.5562C61.2604 16.5163 61.2063 16.4939 61.1499 16.4939Z" fill="#43484B"/>
<path d="M63.6194 18.7938C63.486 18.8551 63.341 18.8871 63.1942 18.8876C63.0284 18.8876 62.8693 18.8217 62.7521 18.7045C62.6348 18.5873 62.5689 18.4283 62.5689 18.2626C62.5658 18.2335 62.5658 18.2042 62.5689 18.1751C62.555 18.0102 62.6072 17.8466 62.7138 17.72C62.8205 17.5935 62.973 17.5144 63.1379 17.5001H63.213C63.3516 17.4947 63.4894 17.5248 63.6132 17.5876L63.6882 17.3251C63.5374 17.2632 63.376 17.2314 63.213 17.2314C62.9585 17.2142 62.7075 17.2987 62.5153 17.4662C62.323 17.6338 62.2051 17.8707 62.1875 18.1251V18.2188C62.1825 18.3359 62.2007 18.4528 62.2411 18.5628C62.2815 18.6728 62.3433 18.7737 62.423 18.8597C62.5026 18.9457 62.5985 19.0151 62.7051 19.0638C62.8117 19.1126 62.927 19.1398 63.0441 19.1438C63.0772 19.15 63.1111 19.15 63.1442 19.1438C63.3312 19.1495 63.5171 19.1132 63.6882 19.0375L63.6194 18.7938Z" fill="#43484B"/>
<path d="M65.876 19.1188C65.8604 18.9692 65.8604 18.8184 65.876 18.6688V17.9626C65.8883 17.8748 65.8832 17.7854 65.861 17.6995C65.8388 17.6137 65.7998 17.533 65.7464 17.4622C65.693 17.3914 65.6261 17.3318 65.5496 17.2868C65.4732 17.2419 65.3886 17.2124 65.3007 17.2001C65.2508 17.1941 65.2005 17.1941 65.1506 17.2001C64.9303 17.195 64.7132 17.2536 64.5253 17.3689L64.6004 17.5939C64.7478 17.4996 64.9193 17.4497 65.0943 17.4501C65.1963 17.4378 65.299 17.4664 65.3799 17.5296C65.4608 17.5929 65.5133 17.6857 65.5258 17.7876V17.9251C64.7942 17.9251 64.3878 18.1751 64.3878 18.6251C64.3861 18.6953 64.3984 18.7653 64.424 18.8307C64.4496 18.8962 64.4879 18.956 64.5368 19.0066C64.5856 19.0572 64.644 19.0975 64.7086 19.1254C64.7732 19.1532 64.8427 19.168 64.913 19.1688H64.9693C65.0806 19.171 65.1909 19.1467 65.291 19.0977C65.391 19.0488 65.478 18.9768 65.5446 18.8876V19.125L65.876 19.1188ZM65.507 18.4938C65.5134 18.529 65.5134 18.5649 65.507 18.6001C65.475 18.695 65.4134 18.7771 65.3313 18.8345C65.2491 18.8918 65.1507 18.9214 65.0506 18.9188C65.0103 18.9213 64.97 18.9159 64.9318 18.9028C64.8937 18.8897 64.8585 18.8693 64.8283 18.8425C64.7981 18.8158 64.7734 18.7834 64.7558 18.7472C64.7381 18.7109 64.7278 18.6716 64.7254 18.6313C64.7254 18.6313 64.7254 18.6313 64.7254 18.5876C64.7254 18.2251 65.1506 18.1563 65.5258 18.1626L65.507 18.4938Z" fill="#43484B"/>
<path d="M66.8256 19.1188H67.1757V16.3564H66.8256V19.1188Z" fill="#43484B"/>
<path d="M69.7078 18.2376V18.0813C69.7288 17.8703 69.6658 17.6594 69.5324 17.4944C69.3989 17.3295 69.2058 17.2237 68.9949 17.2001H68.9199C68.6794 17.2067 68.451 17.3072 68.2839 17.4801C68.1167 17.6531 68.024 17.8846 68.0257 18.1251C68.0223 18.1479 68.0223 18.171 68.0257 18.1938C68.0154 18.3083 68.0278 18.4237 68.0621 18.5335C68.0964 18.6432 68.1521 18.7451 68.2258 18.8333C68.2996 18.9215 68.39 18.9943 68.4919 19.0476C68.5938 19.1009 68.7053 19.1336 68.8198 19.1438C68.8655 19.15 68.9118 19.15 68.9574 19.1438C69.1714 19.1502 69.3844 19.1119 69.5827 19.0313L69.5264 18.7813C69.3606 18.8521 69.1814 18.8862 69.0012 18.8813C68.8353 18.8813 68.6763 18.8155 68.559 18.6983C68.4418 18.581 68.3759 18.4221 68.3759 18.2563V18.2251L69.7078 18.2376ZM68.3759 17.9938C68.3801 17.8519 68.4368 17.7165 68.5349 17.6138C68.633 17.5111 68.7657 17.4484 68.9074 17.4376C68.9712 17.4384 69.0341 17.4519 69.0926 17.4772C69.1512 17.5025 69.2041 17.5392 69.2483 17.5852C69.2925 17.6311 69.3271 17.6854 69.3502 17.7448C69.3733 17.8042 69.3843 17.8676 69.3826 17.9313V17.9938H68.3759Z" fill="#43484B"/>
<path d="M46.6292 4.37573V14.094H50.286V4.37573H46.6292Z" fill="#C52A19"/>
<path d="M53.3488 5.62567C52.8602 6.08726 52.4738 6.64605 52.2143 7.26607C51.9548 7.88608 51.8282 8.55356 51.8424 9.2255C51.8325 9.89592 51.9611 10.5612 52.2204 11.1795C52.4796 11.7979 52.8638 12.3561 53.3488 12.8191C54.3139 13.7713 55.6153 14.3053 56.9712 14.3053C58.3271 14.3053 59.6284 13.7713 60.5935 12.8191C61.0764 12.3535 61.4587 11.7938 61.7167 11.1746C61.9748 10.5554 62.1031 9.88995 62.0937 9.21925C62.1079 8.55275 61.986 7.89035 61.7356 7.2725C61.4852 6.65464 61.1115 6.0943 60.6373 5.62567C60.1775 5.1476 59.6248 4.7685 59.0132 4.51165C58.4016 4.2548 57.7439 4.1256 57.0806 4.13199C56.3899 4.11634 55.7033 4.24062 55.062 4.49732C54.4206 4.75402 53.8379 5.13784 53.3488 5.62567ZM57.9744 8.1943C58.2418 8.47526 58.3878 8.85022 58.3807 9.238C58.3836 9.42956 58.3486 9.6198 58.2779 9.79783C58.2071 9.97585 58.1018 10.1382 57.9682 10.2755C57.8386 10.4116 57.6824 10.5196 57.5092 10.5927C57.3361 10.6658 57.1497 10.7025 56.9618 10.7004C56.7766 10.7029 56.5929 10.6664 56.4227 10.5931C56.2525 10.5199 56.0997 10.4117 55.9742 10.2755C55.7063 9.99521 55.5569 9.6225 55.5569 9.23488C55.5569 8.84725 55.7063 8.47454 55.9742 8.1943C56.1019 8.05913 56.256 7.95165 56.4269 7.87855C56.5979 7.80544 56.7821 7.76826 56.9681 7.76932C57.1545 7.76595 57.3397 7.80019 57.5126 7.86999C57.6855 7.93978 57.8426 8.04371 57.9744 8.17555V8.1943Z" fill="#C52A19"/>
<path d="M0.00452014 0.750896V8.87552C-0.0487634 10.1863 0.370474 11.4726 1.18592 12.5003C1.64889 13.0631 2.23483 13.5121 2.89864 13.8128C3.55823 14.1215 4.27691 14.2835 5.00516 14.2878C5.68466 14.3035 6.36035 14.1821 6.99185 13.9308C7.62336 13.6795 8.19773 13.3035 8.68063 12.8253C9.16348 12.3587 9.54525 11.7978 9.80224 11.1774C10.0592 10.5571 10.186 9.8906 10.1746 9.21925C10.1925 8.55556 10.0761 7.89509 9.83228 7.27753C9.58844 6.65998 9.22222 6.0981 8.75564 5.62567C8.29408 5.14986 7.73965 4.77396 7.12674 4.52132C6.51383 4.26867 5.85553 4.14466 5.19268 4.15699C4.96766 4.15699 4.64261 4.17574 4.21756 4.21323V8.23805C4.48359 8.03506 4.80275 7.91349 5.13643 7.88806C5.31565 7.88325 5.49381 7.91704 5.65883 7.98713C5.82384 8.05722 5.97184 8.16198 6.0928 8.2943C6.35072 8.56271 6.49224 8.92207 6.4866 9.29425C6.48939 9.478 6.45355 9.66029 6.38141 9.82932C6.30927 9.99834 6.20242 10.1503 6.0678 10.2755C5.93683 10.4085 5.77992 10.5132 5.6068 10.5831C5.43368 10.6529 5.24805 10.6865 5.06142 10.6817C4.1238 10.6817 3.66124 10.0567 3.66124 8.73802V0.750896H0.00452014Z" fill="#43484B"/>
<path d="M11.8123 4.37573V14.094H15.469V4.37573H11.8123ZM12.3624 0.525907C12.1863 0.682178 12.0464 0.874975 11.9524 1.09085C11.8585 1.30673 11.8128 1.5405 11.8185 1.77585C11.8113 2.00851 11.8532 2.24007 11.9416 2.45545C12.0299 2.67082 12.1626 2.86516 12.3311 3.02579C12.6973 3.34037 13.1641 3.51335 13.6469 3.51335C14.1297 3.51335 14.5965 3.34037 14.9627 3.02579C15.1299 2.86421 15.2618 2.66971 15.3501 2.45456C15.4383 2.23941 15.4809 2.00831 15.4753 1.77585C15.4781 1.54091 15.4311 1.30804 15.3374 1.09259C15.2436 0.877136 15.1053 0.683998 14.9314 0.525907C14.5889 0.188883 14.1275 0 13.6469 0C13.1663 0 12.7049 0.188883 12.3624 0.525907Z" fill="#43484B"/>
<path d="M26.3079 8.95676C26.3785 7.77668 26.0286 6.60977 25.3203 5.66317C24.5642 4.78313 23.4895 4.23936 22.3326 4.15146C21.1756 4.06356 20.0311 4.43872 19.1507 5.19444C19.0546 5.27501 18.9628 5.36053 18.8757 5.45068C18.4647 5.87649 18.1425 6.3798 17.9279 6.93129C17.7132 7.48278 17.6105 8.07145 17.6255 8.66303V14.094H21.2572V8.59428C21.2572 8.03181 21.4823 7.75057 21.9386 7.75057C22.3949 7.75057 22.6324 8.03181 22.6324 8.59428V14.094H26.2891L26.3079 8.95676Z" fill="#43484B"/>
<path d="M32.965 10.6942C32.7846 10.7024 32.6046 10.6715 32.4374 10.6035C32.2701 10.5355 32.1196 10.4321 31.9961 10.3005C31.8667 10.1706 31.7659 10.0151 31.7002 9.84398C31.6345 9.67283 31.6054 9.48982 31.6148 9.30675C31.6181 8.9315 31.7686 8.57255 32.034 8.30719C32.2994 8.04184 32.6584 7.89133 33.0337 7.88806C33.2268 7.8817 33.4187 7.92014 33.5944 8.00039C33.7701 8.08063 33.9248 8.20048 34.0464 8.35054C34.3171 8.70885 34.4501 9.15238 34.4214 9.60048V14.1128H38.0781V9.313C38.1098 8.62897 38.0057 7.94545 37.7718 7.30186C37.5379 6.65827 37.1789 6.06735 36.7155 5.56317C35.9764 4.88652 35.0598 4.43434 34.073 4.25955C33.0862 4.08477 32.0701 4.1946 31.1435 4.5762C30.2168 4.95779 29.4181 5.59537 28.8407 6.41432C28.2633 7.23326 27.9311 8.19969 27.8831 9.2005V9.2505C27.8725 9.9223 28.0002 10.5891 28.2583 11.2094C28.5164 11.8298 28.8993 12.3905 29.3833 12.8566C29.9718 13.4204 30.6846 13.838 31.4642 14.0758C32.2438 14.3135 33.0683 14.3647 33.8714 14.2253V10.4379C33.6056 10.6055 33.2979 10.6943 32.9837 10.6942H32.965Z" fill="#43484B"/>
<path d="M44.4415 4.14449C43.8681 4.11927 43.2961 4.21786 42.7643 4.43355C42.2326 4.64925 41.7535 4.97698 41.3598 5.39443C40.5596 6.32393 40.1477 7.52566 40.2097 8.75052V14.0753H43.8664V9.45049C43.8664 8.43804 44.1977 7.92556 44.8603 7.92556C45.1063 7.93889 45.3449 8.01413 45.5541 8.1443V4.25073C45.186 4.19059 44.8143 4.1551 44.4415 4.14449Z" fill="#43484B"/>
<path d="M68.6258 4.48822C68.0835 4.45594 67.5401 4.53157 67.0273 4.71073C66.5144 4.88988 66.0422 5.16901 65.6379 5.53192C65.2739 5.86275 64.9952 6.27653 64.8253 6.73812C64.6447 7.42369 64.5502 8.12909 64.544 8.83802C64.5629 9.30466 64.4068 9.76154 64.1065 10.1192C63.7534 10.3996 63.3051 10.5319 62.8563 10.4879H62.6938V14.3753H63.2001C64.2091 14.4264 65.2138 14.2108 66.113 13.7503C67.4069 12.9753 68.132 11.6504 68.307 9.76298C68.3007 9.35446 68.428 8.95506 68.6696 8.62553C68.9745 8.39853 69.3543 8.29578 69.7322 8.33804V4.48822H68.6258Z" fill="#43484B"/>
<path d="M70.9824 0.300917C70.6816 0.459776 70.434 0.703081 70.2698 1.00088C70.1072 1.29122 70.0212 1.61812 70.0197 1.95084C70.0166 2.2802 70.1031 2.60421 70.2698 2.8883C70.4312 3.18391 70.6742 3.42689 70.9699 3.58826C71.2549 3.75282 71.5783 3.83945 71.9075 3.83945C72.2366 3.83945 72.56 3.75282 72.8451 3.58826C73.1376 3.42483 73.3781 3.18222 73.5389 2.8883C73.7031 2.60316 73.7893 2.27985 73.789 1.95084C73.7875 1.61812 73.7015 1.29122 73.5389 1.00088C73.3759 0.706523 73.1333 0.463962 72.8388 0.300917C72.5487 0.138479 72.2212 0.0544701 71.8887 0.0571785C71.5712 0.0626798 71.2598 0.146398 70.9824 0.300917ZM72.6826 0.575904C72.929 0.710813 73.1326 0.912198 73.2701 1.15713C73.4054 1.39755 73.4765 1.66874 73.4765 1.94459C73.4765 2.22044 73.4054 2.49163 73.2701 2.73205C73.1368 2.97802 72.9348 3.17995 72.6888 3.31328C72.4505 3.45157 72.1799 3.52441 71.9044 3.52441C71.6288 3.52441 71.3582 3.45157 71.1199 3.31328C70.8722 3.18004 70.6682 2.97825 70.5323 2.73205C70.3941 2.49263 70.3213 2.22105 70.3213 1.94459C70.3213 1.66813 70.3941 1.39655 70.5323 1.15713C70.6699 0.912198 70.8734 0.710813 71.1199 0.575904C71.3557 0.440479 71.623 0.369215 71.895 0.369215C72.167 0.369215 72.4342 0.440479 72.6701 0.575904H72.6826ZM71.4324 2.99454V2.13208H71.6262C71.7188 2.1266 71.8107 2.15067 71.8887 2.20083C72.0299 2.33813 72.1462 2.49883 72.2325 2.67581L72.4138 2.99454H72.8138L72.5638 2.59456C72.4765 2.45216 72.3761 2.31825 72.2638 2.19458C72.2135 2.14578 72.154 2.10753 72.0887 2.08208C72.252 2.07158 72.4046 1.99754 72.5138 1.87584C72.6143 1.77189 72.6703 1.63292 72.6701 1.48836C72.6676 1.38155 72.6351 1.27758 72.5763 1.18838C72.5119 1.09845 72.4229 1.02902 72.32 0.988385C72.1507 0.944715 71.976 0.92577 71.8012 0.932138H71.0761V2.99454H71.4324ZM71.4324 1.23837H71.8075C71.915 1.21958 72.025 1.21958 72.1325 1.23837C72.1876 1.26286 72.2367 1.29912 72.2763 1.34462C72.3076 1.39312 72.325 1.44937 72.3263 1.50711C72.3266 1.55018 72.3171 1.59275 72.2988 1.6317C72.2804 1.67064 72.2535 1.70495 72.22 1.7321C72.103 1.8006 71.9676 1.83116 71.8325 1.8196H71.4324V1.23837Z" fill="#43484B"/>
<path d="M47.1856 0.525907C47.0095 0.682178 46.8696 0.874975 46.7756 1.09085C46.6817 1.30673 46.636 1.5405 46.6417 1.77585C46.6329 2.00871 46.6741 2.24076 46.7625 2.45637C46.8509 2.67198 46.9845 2.86614 47.1543 3.02579C47.5205 3.34037 47.9873 3.51335 48.4701 3.51335C48.9529 3.51335 49.4197 3.34037 49.7859 3.02579C49.9531 2.86421 50.085 2.66971 50.1733 2.45456C50.2615 2.23941 50.3041 2.00831 50.2985 1.77585C50.3013 1.54091 50.2543 1.30804 50.1606 1.09259C50.0668 0.877136 49.9285 0.683998 49.7546 0.525907C49.4121 0.188883 48.9507 0 48.4701 0C47.9895 0 47.5281 0.188883 47.1856 0.525907Z" fill="#43484B"/>
</svg>
